<svg width="390" height="71" viewBox="0 0 390 71" fill="none" xmlns="http://www.w3.org/2000/svg">
<path d="M95.1678 40.7094H90.5069L89.0564 46.0106H85.0055L86.4559 40.7094H83.5884V37.0681H87.4694L88.5831 33.0141H84.702V29.3727H89.5966L91.0834 24.0716H95.1344L93.6475 29.3727H98.3115L99.7953 24.0716H103.846L102.362 29.3727H105.263V33.0141H101.346L100.232 37.0681H104.147V40.7094H99.2218L97.7683 46.0106H93.7143L95.1678 40.7094ZM91.5265 37.0681H96.1874L97.301 33.0141H92.634L91.5265 37.0681Z" fill="white"/>
<path d="M123.694 34.0245V34.6678L132.494 44.7604V46.0106H126.122L118.424 36.9073H116.23V46.0106H110.495V24.0655H116.233V32.1675H118.393L125.448 24.0655H131.387V25.3157L123.694 34.0245Z" fill="white"/>
<path d="M135.332 29.13H141.003V30.7504C141.665 30.0951 142.451 29.5783 143.314 29.2303C144.178 28.8823 145.103 28.7099 146.034 28.7234C150.388 28.7234 153.562 32.1675 153.562 37.5688C153.562 42.9701 150.398 46.4111 146.043 46.4111C145.114 46.4309 144.191 46.265 143.327 45.9232C142.463 45.5814 141.676 45.0705 141.012 44.4206V51.242H135.332V29.13ZM140.794 37.5688C140.794 39.7657 142.177 41.0827 144.304 41.0827C146.432 41.0827 147.815 39.7657 147.815 37.5688C147.815 35.3718 146.432 34.0579 144.304 34.0579C142.177 34.0579 140.809 35.3749 140.809 37.5688H140.794Z" fill="white"/>
<path d="M161.503 29.13L165.218 38.9556H165.421L168.898 29.13H174.333V30.2103L168.222 46.0774C166.905 49.4881 165.114 51.5697 159.14 51.5697V46.1684C160.423 46.1684 161.3 46.0986 161.871 45.865L155.662 30.2103V29.13H161.503Z" fill="white"/>
<path d="M177.268 29.13H190.131V34.3978H182.942V46.0106H177.268V29.13Z" fill="white"/>
<path d="M192.528 37.5688C192.528 32.1675 196.473 28.7234 201.847 28.7234C207.221 28.7234 211.165 32.1675 211.165 37.5688C211.165 42.9701 207.215 46.4112 201.847 46.4112C196.479 46.4112 192.528 42.9731 192.528 37.5688ZM198.266 37.5688C198.266 39.7657 199.686 41.0827 201.847 41.0827C204.007 41.0827 205.427 39.7657 205.427 37.5688C205.427 35.3719 204.01 34.058 201.85 34.058C199.689 34.058 198.266 35.3749 198.266 37.5688Z" fill="white"/>
<path d="M238.002 37.3685V38.7856C236.721 43.0338 232.094 46.4142 226.185 46.4142C219.206 46.4142 214.066 41.9263 214.066 34.9046C214.066 27.8829 219.197 23.4253 226.185 23.4253C231.79 23.4253 236.484 26.2594 238.002 31.0539V32.4709H232.06C231.22 30.1102 229.096 28.7598 226.185 28.7598C222.405 28.7598 219.907 31.0539 219.907 34.9046C219.907 38.7553 222.405 41.0827 226.185 41.0827C229.089 41.0827 231.25 39.7324 232.094 37.3685H238.002Z" fill="white"/>
<path d="M241.95 29.13H249.839C254.767 29.13 258.381 30.887 258.381 33.9851C258.381 35.6389 257.268 36.7161 255.847 37.3959V37.6993C257.234 38.206 258.578 39.2863 258.578 40.9401C258.578 43.8774 255.407 46.0046 249.97 46.0046H241.95V29.13ZM250.143 33.7545H247.609V36.0941H250.583C251.73 36.0941 252.403 35.6207 252.403 34.9471C252.415 34.1945 251.605 33.7879 250.155 33.7545H250.143ZM250.783 39.0557H247.621V41.3861H250.222C251.809 41.3861 252.649 40.9795 252.649 40.2027C252.652 39.5291 251.945 39.0557 250.795 39.0557H250.783Z" fill="white"/>
<path d="M279.829 39.6626V40.7428C278.782 43.9502 275.238 46.4112 270.646 46.4112C265.278 46.4112 261.328 42.9701 261.328 37.5658C261.328 32.1614 265.272 28.7204 270.646 28.7204C275.441 28.7204 279.085 31.4514 279.829 35.8786V38.3062H267.102C267.372 40.1632 268.723 41.2769 270.646 41.2769C272.03 41.2769 273.247 40.7701 273.887 39.6565L279.829 39.6626ZM267.439 35.3081H273.854C273.28 34.1277 272.233 33.4511 270.646 33.4511C269.15 33.4511 268.013 34.1277 267.439 35.3081Z" fill="white"/>
<path d="M292.792 46.0106H287.12V34.3978H281.989V29.13H297.89V34.3978H292.792V46.0106Z" fill="white"/>
<path d="M307.882 39.696H306.668V46.0106H300.994V29.13H306.668V35.4447H307.815L312.643 29.13H318.281V29.9069L312.44 37.4019L318.718 45.2338V46.0106H312.776L307.882 39.696Z" fill="white"/>
<path d="M338.502 46.0106H332.831V44.4236C332.165 45.0712 331.378 45.5806 330.515 45.9222C329.651 46.2639 328.728 46.4311 327.8 46.4142C323.446 46.4142 320.271 42.9731 320.271 37.5688C320.271 32.1645 323.446 28.7234 327.8 28.7234C328.731 28.713 329.654 28.8867 330.518 29.2346C331.381 29.5824 332.167 30.0976 332.831 30.7504V29.13H338.502V46.0106ZM333.04 37.5688C333.04 35.3749 331.654 34.058 329.53 34.058C327.405 34.058 326.016 35.3749 326.016 37.5688C326.016 39.7627 327.402 41.0827 329.53 41.0827C331.657 41.0827 333.034 39.7657 333.034 37.5688H333.04Z" fill="white"/>
<path d="M368.109 28.4199C363.972 33.7119 360.753 39.6613 358.587 46.0197H352.849C355.011 39.9478 358.073 34.235 361.931 29.0723H349.438V24.0655H368.109V28.4199Z" fill="white"/>
<path d="M389.314 41.1494H386.477V46.0045H380.739V41.1494H368.923V36.8284L381.425 24.0655H386.489V36.4885H390L389.314 41.1494ZM380.739 36.4885V30.9871L374.898 36.4885H380.739Z" fill="white"/>
<path d="M64.7776 34.9258C62.7337 34.5545 60.6713 34.2931 58.5994 34.1429C53.4434 33.7742 48.2612 34.0884 43.1875 35.0775C45.9185 38.1119 48.1245 40.5395 49.5598 42.1629C52.039 44.9576 58.5205 52.307 60.9086 54.6921C63.0327 56.8162 64.0129 57.854 64.468 58.3334C67.1839 61.1282 68.6889 62.6757 69.6418 62.3086C70.5946 61.9414 70.6462 59.614 70.5824 58.1696C70.4429 55.126 69.663 48.2591 64.7776 34.9258Z" fill="white"/>
<path d="M35.2951 35.2929C36.7955 32.2262 38.6831 29.3646 40.9119 26.7783C44.972 22.0779 47.2569 21.7047 47.8911 21.6197C49.9242 21.3709 51.6629 22.0961 52.7189 22.6727C54.3999 23.7624 55.9947 24.9798 57.489 26.314C60.3146 28.824 62.7669 31.7249 64.7717 34.9288C54.9113 33.144 44.7574 33.9299 35.2891 37.2107L35.2951 35.2929Z" fill="white"/>
<path d="M34.943 5.80122C34.5093 8.22687 34.2296 10.6775 34.1055 13.1385C33.8656 18.03 34.2315 22.9324 35.1948 27.7342C37.4707 25.5089 39.8042 23.2735 42.1953 21.028C46.399 17.0711 50.5703 13.2933 54.7093 9.69441C56.8334 7.5703 57.8712 6.58714 58.3355 6.13501C61.1302 3.40401 62.6778 1.91107 62.3136 0.958252C61.9495 0.00543743 59.616 -0.0431136 58.1747 0.0175753C55.1432 0.135918 48.2763 0.91577 34.943 5.80122Z" fill="white"/>
<path d="M35.3285 35.2717C32.2617 33.7714 29.4001 31.8837 26.8138 29.655C22.1135 25.5949 21.7403 23.3099 21.6553 22.6757C21.4938 20.996 21.862 19.3079 22.7082 17.848C23.797 16.1662 25.0144 14.5714 26.3496 13.0778C28.8595 10.2522 31.7605 7.7999 34.9643 5.79515C33.1754 15.6553 33.9614 25.8103 37.2462 35.2778L35.3285 35.2717Z" fill="white"/>
<path d="M35.6837 64.7665C36.1355 62.2541 36.4233 59.7149 36.5454 57.1652C36.7655 52.4783 36.4232 47.7819 35.5259 43.1764C32.4914 45.9074 30.0639 48.1134 28.4435 49.5487C25.6336 52.04 18.2993 58.5094 15.9143 60.8945C13.7902 63.0186 12.7524 64.0018 12.2729 64.4539C9.47823 67.1697 7.93066 68.6779 8.2948 69.6125C8.67713 70.6078 10.9924 70.6169 12.4368 70.5562C15.4712 70.4318 22.3473 69.6489 35.6837 64.7665Z" fill="white"/>
<path d="M5.81245 35.654C8.03224 36.0559 10.2734 36.3294 12.5246 36.4733C17.502 36.7828 22.4985 36.4565 27.3934 35.5023C25.2794 33.1456 23.1553 30.7838 21.0211 28.4169C17.2462 24.2132 13.4744 20.0368 9.70564 15.8877C7.58153 13.7636 6.59837 12.7258 6.14624 12.2615C3.41524 9.46681 1.92229 7.91925 0.96948 8.28338C0.0166655 8.64751 -0.0440233 10.981 0.0166655 12.4254C0.147146 15.4598 0.926998 22.3207 5.81245 35.654Z" fill="white"/>
<path d="M35.2949 35.2869C33.7946 38.3537 31.9069 41.2153 29.6782 43.8015C25.6181 48.5019 23.3332 48.8751 22.699 48.9601C20.6659 49.2089 18.9271 48.4837 17.8712 47.9071C16.1908 46.8164 14.5962 45.5991 13.101 44.2658C10.2746 41.7555 7.82217 38.8535 5.81836 35.648C11.1382 36.6118 16.5661 36.8314 21.9464 36.3004C26.4965 35.8506 30.9779 34.8668 35.298 33.3691L35.2949 35.2869Z" fill="white"/>
<path d="M35.3103 35.2838C38.3771 36.7842 41.2387 38.6718 43.825 40.9006C48.5253 44.9607 48.8986 47.2456 48.9835 47.8798C49.2324 49.9129 48.5071 51.6516 47.9306 52.7076C46.8399 54.3879 45.6226 55.9826 44.2893 57.4777C41.779 60.3041 38.8769 62.7566 35.6714 64.7604C36.6353 59.4406 36.8548 54.0126 36.3238 48.6323C35.8741 44.0822 34.8902 39.6009 33.3926 35.2808L35.3103 35.2838Z" fill="white"/>
<path d="M35.295 43.1825C39.6557 43.1825 43.1906 39.6475 43.1906 35.2869C43.1906 30.9262 39.6557 27.3912 35.295 27.3912C30.9344 27.3912 27.3994 30.9262 27.3994 35.2869C27.3994 39.6475 30.9344 43.1825 35.295 43.1825Z" fill="white"/>
</svg>
