<svg width="50" height="50" viewBox="0 0 50 50" fill="none" xmlns="http://www.w3.org/2000/svg">
<path d="M50 43.0556C50 46.9444 46.9444 50 43.0556 50H6.94444C3.05556 50 0 46.9444 0 43.0556V6.94444C0 3.05556 3.05556 0 6.94444 0H43.0556C46.9444 0 50 3.05556 50 6.94444V43.0556Z" fill="#FF9800"/>
<path d="M29.0277 33.8888C31.1111 33.4721 33.0555 32.6388 34.7222 31.5276C36.1111 30.6943 36.5277 28.8888 35.6944 27.4999C34.8611 26.111 33.0555 25.6943 31.6666 26.5276C27.6388 29.0276 22.3611 29.0276 18.3333 26.5276C16.9444 25.6943 15.1388 26.111 14.3055 27.4999C13.4722 28.8888 13.8888 30.6943 15.2777 31.5276C17.0833 32.6388 19.0277 33.4721 20.9722 33.8888L15.4166 39.4443C14.3055 40.5554 14.3055 42.361 15.4166 43.611C15.9722 44.1665 16.6666 44.4443 17.4999 44.4443C18.1944 44.4443 19.0277 44.1665 19.5833 43.611L24.9999 38.1943L30.4166 43.611C31.5277 44.7221 33.3333 44.7221 34.5833 43.611C35.6944 42.4999 35.6944 40.6943 34.5833 39.4443L29.0277 33.8888ZM24.9999 5.55542C19.5833 5.55542 15.2777 9.86098 15.2777 15.2776C15.2777 20.6943 19.5833 24.9999 24.9999 24.9999C30.4166 24.9999 34.7222 20.6943 34.7222 15.2776C34.7222 9.86098 30.4166 5.55542 24.9999 5.55542ZM24.9999 19.4443C22.6388 19.4443 20.8333 17.6388 20.8333 15.2776C20.8333 12.9165 22.6388 11.111 24.9999 11.111C27.3611 11.111 29.1666 12.9165 29.1666 15.2776C29.1666 17.6388 27.3611 19.4443 24.9999 19.4443Z" fill="white"/>
</svg>
