<svg width="55" height="56" viewBox="0 0 55 56" fill="none" xmlns="http://www.w3.org/2000/svg">
<path d="M27.5 0.237549C12.375 0.237549 0 12.6125 0 27.7375C0 42.8625 12.375 55.2375 27.5 55.2375C42.625 55.2375 55 42.8625 55 27.7375C55 12.6125 42.625 0.237549 27.5 0.237549Z" fill="#1976D2"/>
<path d="M29.1498 40.3878C16.7748 40.3878 9.7623 32.0003 9.4873 17.8378H15.6748C15.8123 28.1503 20.4873 32.5503 24.0623 33.3753V17.8378H29.8373V26.7753C33.4123 26.3628 37.1248 22.3753 38.3623 17.8378H44.1373C43.1748 23.3378 39.0498 27.4628 36.1623 29.1128C39.0498 30.4878 43.7248 34.0628 45.3748 40.3878H38.9123C37.5373 36.1253 34.0998 32.8253 29.5623 32.2753V40.3878H29.1498Z" fill="white"/>
</svg>
